<svg width="128" height="128" viewBox="0 0 128 128" xmlns="http://www.w3.org/2000/svg">
  <defs>
    <linearGradient id="back_grad" x1="0%" y1="0%" x2="100%" y2="100%">
      <stop offset="0%" style="stop-color:#2a5298;stop-opacity:1" />
      <stop offset="100%" style="stop-color:#1e3c72;stop-opacity:1" />
    </linearGradient>

    <linearGradient id="ribbon_grad" x1="0%" y1="0%" x2="0%" y2="100%">
      <stop offset="0%" style="stop-color:#e74c3c;stop-opacity:1" />
      <stop offset="100%" style="stop-color:#c0392b;stop-opacity:1" />
    </linearGradient>

    <linearGradient id="gold_edge" x1="0%" y1="0%" x2="100%" y2="0%">
      <stop offset="0%" style="stop-color:#d4af37;stop-opacity:1" />
      <stop offset="50%" style="stop-color:#f9f295;stop-opacity:1" />
      <stop offset="100%" style="stop-color:#b8860b;stop-opacity:1" />
    </linearGradient>
    
    <linearGradient id="gloss" x1="0%" y1="0%" x2="0%" y2="100%">
      <stop offset="0%" style="stop-color:white;stop-opacity:0.2" />
      <stop offset="50%" style="stop-color:white;stop-opacity:0" />
    </linearGradient>
  </defs>

  <rect x="8" y="8" width="112" height="112" rx="26" fill="url(#back_grad)" />
  <rect x="8" y="8" width="112" height="56" rx="26" fill="url(#gloss)" />

  <path d="M75 80 L75 108 L82 104 L89 108 L89 80 Z" fill="url(#ribbon_grad)" />

  <path d="M22 84 Q64 96 106 84 L106 90 Q64 102 22 90 Z" fill="url(#gold_edge)" />
  
  <path d="M22 45 L64 55 L64 94 L22 84 Z" fill="#fdfcf0" />
  <path d="M64 55 L106 45 L106 84 L64 94 Z" fill="#f4f1de" />

  <path d="M22 45 Q43 35 64 55 Q85 35 106 45 L106 84 Q85 74 64 94 Q43 74 22 84 Z" fill="#ffffff" />
  
  <rect x="63.5" y="55" width="1" height="39" fill="rgba(0,0,0,0.2)" />

  <g transform="translate(78, 58) scale(0.6)">
    <path d="M12 2 v20 M5 9 h14" stroke="#d4af37" stroke-width="2.5" stroke-linecap="round" fill="none" />
  </g>

  <text x="35" y="72" font-family="Serif" font-size="14" fill="#2c3e50" opacity="0.4" font-weight="bold">Α</text>
  <text x="85" y="72" font-family="Serif" font-size="14" fill="#2c3e50" opacity="0.4" font-weight="bold">Ω</text>

  <rect x="8.5" y="8.5" width="111" height="111" rx="25.5" fill="none" stroke="white" stroke-opacity="0.1" stroke-width="1"/>
</svg>