<svg xmlns="http://www.w3.org/2000/svg" viewBox="0 0 24 24">
    <path fill="currentColor" d="M19 2H7.5C5.6 2 4 3.6 4 5.5v13C4 20.4 5.6 22 7.5 22H19c.6 0 1-.4 1-1V3c0-.6-.4-1-1-1zm-1 15H7.5c-.8 0-1.5.7-1.5 1.5s.7 1.5 1.5 1.5H18v-3zm0-12v10H7.5c-1.4 0-2.5 1.1-2.5 2.5V5.5C5 4.1 6.1 3 7.5 3H18z"/>
    
    <path fill="currentColor" d="M12 6c-2.2 0-4 1.8-4 4v1h1.5v-1c0-1.4 1.1-2.5 2.5-2.5s2.5 1.1 2.5 2.5v1H16v-1c0-2.2-1.8-4-4-4z"/>
    
    <circle fill="currentColor" cx="9" cy="12" r="1.5"/>
    <circle fill="currentColor" cx="15" cy="12" r="1.5"/>
</svg>