<?xml version="1.0" encoding="utf-8"?>
<svg viewBox="0 0 24 24" xmlns="http://www.w3.org/2000/svg">
    <path fill="currentColor" d="M11.2 14.5l-.6-2h-1.8l-.6 2H7l1.8-5.5h1.3l1.8 5.5h-.7zm-.9-2.7l-.6-1.9-.6 1.9h1.2zM18 9.5v1.2h-2.1l2.1 3.2V15h-3.5v-1.2h2.1l-2.1-3.2V9.5H18zM12 11.5h2v1h-2v-1z"/>
    
    <path fill="currentColor" d="M3 4c0-1.1.9-2 2-2h2v18H5c-1.1 0-2-.9-2-2V4zm1.5 0v14c0 .3.2.5.5.5h.5V3.5H5c-.3 0-.5.2-.5.5z"/>
    
    <path fill="currentColor" d="M7 2v18h12c1.1 0 2-.9 2-2V4c0-1.1-.9-2-2-2H7zm1.5 1.5h10.5c.3 0 .5.2.5.5v13c0 .3-.2.5-.5.5H8.5V3.5z"/>
</svg>