<svg xmlns="http://www.w3.org/2000/svg" viewBox="0 0 24 24">
    <path fill="currentColor" d="M8.26 3.44a2 2 0 0 1 1.48 0l4.55 2.28a2 2 0 0 0 1.79 0l3.66-1.83A1 1 0 0 1 21 4.62v12.76a1 1 0 0 1-.55.9l-4.55 2.27a2 2 0 0 1-1.79 0l-4.21-2.1a2 2 0 0 0-1.79 0l-3.66 1.83A1 1 0 0 1 3 19.38V6.62a1 1 0 0 1 .55-.9l4.55-2.28h.16m0-1.78l-5.11 2.55A2.5 2.5 0 0 0 1.5 6.62v12.76A2.5 2.5 0 0 0 4.11 21.7l3.66-1.83a.5.5 0 0 1 .45 0l4.21 2.1a3.5 3.5 0 0 0 3.13 0l4.55-2.27A2.5 2.5 0 0 0 22.5 17.38V4.62a2.5 2.5 0 0 0-3.61-2.24l-3.66 1.83a.5.5 0 0 1-.45 0L9.73 1.93a3.5 3.5 0 0 0-3.13 0L3.08 3.69l.66 1.33 3.52-1.76a2 2 0 0 1 1 0z"/>
    
    <rect fill="currentColor" x="8.25" y="3.5" width="1.5" height="14.5" rx="0.5"/>
    <rect fill="currentColor" x="14.25" y="6" width="1.5" height="14.5" rx="0.5"/>
</svg>